<?xml version="1.0" standalone="no"?>
<!DOCTYPE svg PUBLIC "-//W3C//DTD SVG 20010904//EN"
 "http://www.w3.org/TR/2001/REC-SVG-20010904/DTD/svg10.dtd">
<svg version="1.0" xmlns="http://www.w3.org/2000/svg"
 width="260.000000pt" height="260.000000pt" viewBox="0 0 260.000000 260.000000"
 preserveAspectRatio="xMidYMid meet">
<metadata>
Created by potrace 1.14, written by Peter Selinger 2001-2017
</metadata>
<g transform="translate(0.000000,260.000000) scale(0.100000,-0.100000)"
fill="#000000" stroke="none">
<path d="M1342 1818 c13 -18 33 -45 44 -60 15 -22 27 -27 62 -28 23 0 42 -3
42 -7 0 -5 -27 -102 -60 -217 -33 -115 -60 -211 -60 -212 0 -2 29 -4 65 -4 62
0 65 1 71 28 3 15 30 113 59 217 l53 190 85 5 85 5 -41 57 -42 57 -194 1 -193
0 24 -32z"/>
<path d="M942 1754 c18 -26 39 -54 46 -64 11 -16 10 -31 -8 -96 -12 -43 -24
-84 -27 -91 -4 -10 23 -13 126 -13 l131 0 -6 -27 c-4 -16 -9 -31 -11 -35 -2
-5 -62 -8 -133 -8 l-129 0 -26 -85 -27 -85 -159 0 c-87 0 -159 -4 -159 -8 0
-5 18 -33 40 -62 22 -29 40 -57 40 -60 0 -4 -11 -44 -25 -90 -14 -46 -25 -85
-25 -87 0 -2 59 -3 130 -3 l130 0 -6 -27 c-4 -16 -9 -31 -11 -35 -2 -5 -62 -8
-133 -8 l-129 0 -16 -52 c-8 -28 -15 -55 -15 -60 0 -5 86 -7 192 -6 l192 3 38
130 c20 72 40 140 43 153 5 22 5 22 -125 22 -71 0 -130 2 -130 4 0 3 4 16 10
30 9 25 10 25 142 28 l133 3 25 87 25 87 100 3 100 3 42 145 c23 80 42 148 43
153 0 4 -58 7 -130 7 -71 0 -130 2 -130 4 0 3 4 16 10 30 10 26 10 26 135 26
69 0 125 3 125 8 0 4 -20 33 -45 65 l-45 57 -191 0 -190 0 33 -46z"/>
<path d="M524 1727 l45 -63 -49 -169 c-27 -94 -50 -178 -50 -187 0 -15 9 -18
59 -18 l60 0 15 54 c9 30 16 59 16 65 0 7 26 11 70 11 39 0 70 -1 70 -2 0 -2
-7 -25 -15 -52 -23 -75 -23 -76 45 -76 l59 0 20 68 c43 143 81 286 81 300 0 8
-19 41 -42 73 l-43 58 -193 1 -193 0 45 -63z m303 -69 c-2 -7 -10 -37 -17 -65
l-14 -53 -68 0 c-37 0 -68 1 -68 3 0 7 32 112 37 120 2 4 34 7 70 7 48 0 64
-3 60 -12z"/>
<path d="M260 1623 c0 -3 19 -31 41 -61 l42 -55 -52 -184 c-29 -102 -51 -187
-48 -189 2 -2 88 -3 190 -2 l185 3 -41 57 -42 57 -67 1 c-38 0 -68 2 -68 5 0
3 23 85 50 183 28 98 50 181 50 185 0 4 -54 7 -120 7 -66 0 -120 -3 -120 -7z"/>
<path d="M1440 1255 c0 -3 18 -30 40 -59 22 -29 40 -58 40 -65 0 -7 -16 -67
-35 -134 -19 -67 -35 -132 -35 -145 0 -14 14 -38 34 -58 34 -34 34 -34 128
-34 108 0 168 22 203 75 11 17 38 92 59 167 l38 137 -47 60 -48 61 -188 0
c-104 0 -189 -2 -189 -5z m314 -121 c9 -4 16 -18 16 -33 0 -25 -43 -181 -55
-201 -3 -6 -30 -10 -60 -10 -40 0 -54 4 -59 17 -6 15 36 179 55 215 10 18 69
25 103 12z"/>
<path d="M1902 1228 c13 -18 33 -45 44 -60 15 -22 27 -27 62 -28 23 0 42 -2
42 -5 0 -3 -22 -85 -50 -181 -27 -96 -50 -180 -50 -185 0 -6 26 -9 62 -7 l61
3 37 130 c20 72 45 156 54 187 l16 57 85 3 84 3 -42 57 -42 58 -194 0 -193 0
24 -32z"/>
<path d="M1115 1238 c-2 -7 -31 -111 -64 -231 -33 -119 -63 -226 -66 -237 -6
-19 -2 -20 58 -20 l64 0 16 60 17 60 65 0 c73 0 72 0 50 -72 l-14 -48 63 0 63
0 52 186 52 186 -25 36 c-15 21 -35 48 -45 62 l-19 24 -21 -69 c-11 -39 -26
-92 -34 -120 l-14 -50 -67 -3 c-36 -2 -66 1 -66 5 0 4 14 55 30 113 17 58 30
111 30 117 0 18 -119 18 -125 1z"/>
</g>
</svg>
